<svg width="28" height="40" viewBox="0 0 28 40" fill="none" xmlns="http://www.w3.org/2000/svg">
<path d="M22.8451 9.49513V20.1772C22.8451 25.0622 18.885 29.0223 14 29.0223C9.11498 29.0223 5.15488 25.0622 5.15488 20.1772V9.49512C5.15488 4.6101 9.11498 0.65 14 0.65C18.885 0.65 22.8451 4.6101 22.8451 9.49513Z" stroke="#9CFFFF" stroke-width="1.3" stroke-linecap="round" stroke-linejoin="round"/>
<path d="M2.1311 17.2099V20.1771C2.1311 26.7321 7.44499 32.046 14 32.046V32.046C20.555 32.046 25.8689 26.7321 25.8689 20.1771V17.2099" stroke="#9CFFFF" stroke-width="1.3" stroke-linecap="round" stroke-linejoin="round"/>
<path d="M19.4258 39L9.25244 39" stroke="#9CFFFF" stroke-width="1.3" stroke-linecap="round"/>
<path d="M18.2955 35.6068L14.3391 35.6068M10.3828 35.6068L14.3391 35.6068M14.3391 35.6068L14.3391 32.0461" stroke="#9CFFFF" stroke-width="1.3" stroke-linecap="round"/>
</svg>
