<svg width="1600" height="2844" viewBox="0 0 1600 2844" fill="none" xmlns="http://www.w3.org/2000/svg">
<g clip-path="url(#clip0)">
<rect width="1600" height="2844" fill="#1E1E1E"/>
<rect width="1600" height="2844" fill="url(#paint0_linear)"/>
<g opacity="0.1" filter="url(#filter0_df)">
<rect x="-330" y="-145.495" width="826.198" height="3046.19" transform="rotate(-22.8257 -330 -145.495)" fill="white"/>
</g>
<g opacity="0.2" filter="url(#filter1_f)">
<rect x="-21" y="2716" width="653" height="1705" transform="rotate(-90 -21 2716)" fill="white"/>
</g>
<g filter="url(#filter2_df)">
<circle cx="164.767" cy="228.934" r="1.66582" fill="white"/>
<circle cx="569.255" cy="246.246" r="1.66582" fill="white"/>
<circle cx="741.666" cy="154.666" r="1.66582" fill="white"/>
<circle cx="745.666" cy="106.666" r="1.66582" fill="white"/>
<circle cx="360.666" cy="273.666" r="1.66582" fill="white"/>
<circle cx="341.666" cy="349.666" r="1.66582" fill="white"/>
<circle cx="1020.67" cy="279.666" r="1.66582" fill="white"/>
<circle cx="1499.67" cy="539.666" r="1.66582" fill="white"/>
<circle cx="526.572" cy="447.949" r="1.66582" fill="white"/>
<circle cx="413.779" cy="327.316" r="1.66582" fill="white"/>
<circle cx="832.454" cy="351.748" r="1.66582" fill="white"/>
<circle cx="1294.2" cy="109.765" r="1.66582" fill="white"/>
<circle cx="1411.22" cy="94.7341" r="1.66582" fill="white"/>
<circle cx="1571.19" cy="181.696" r="1.66582" fill="white"/>
<circle cx="1470.27" cy="348.105" r="1.66582" fill="white"/>
<circle cx="1546.5" cy="91.5132" r="1.66582" fill="white"/>
<circle cx="1358.67" cy="384.666" r="1.66582" fill="white"/>
<circle cx="1074.11" cy="527.397" r="1.66582" fill="white"/>
<circle cx="988.221" cy="411.447" r="1.66582" fill="white"/>
<circle cx="1005.4" cy="178.475" r="1.66582" fill="white"/>
<circle cx="697.275" cy="468.348" r="1.66582" fill="white"/>
<circle cx="587.767" cy="67.8938" r="1.66582" fill="white"/>
<circle cx="384.856" cy="130.163" r="1.66582" fill="white"/>
<circle cx="304.336" cy="63.5995" r="1.66582" fill="white"/>
<circle cx="814.298" cy="242.891" r="1.66582" fill="white"/>
<circle cx="923.805" cy="138.752" r="1.66582" fill="white"/>
<circle cx="1196.5" cy="109.765" r="1.66582" fill="white"/>
<circle cx="1023.65" cy="48.569" r="1.66582" fill="white"/>
<circle cx="220.594" cy="437.214" r="1.66582" fill="white"/>
<circle cx="1185.76" cy="276.173" r="1.66582" fill="white"/>
<circle cx="28.4193" cy="387.828" r="1.66582" fill="white"/>
</g>
<g filter="url(#filter3_df)">
<circle r="1.66582" transform="matrix(-1 0 0 1 1431.51 1206.03)" fill="white"/>
<circle r="1.66582" transform="matrix(-1 0 0 1 1027.02 1223.34)" fill="white"/>
<circle r="1.66582" transform="matrix(-1 0 0 1 744.402 1160.94)" fill="white"/>
<circle r="1.66582" transform="matrix(-1 0 0 1 1069.7 1425.05)" fill="white"/>
<circle r="1.66582" transform="matrix(-1 0 0 1 1182.5 1304.41)" fill="white"/>
<circle r="1.66582" transform="matrix(-1 0 0 1 763.822 1328.84)" fill="white"/>
<circle r="1.66582" transform="matrix(-1 0 0 1 302.077 1086.86)" fill="white"/>
<circle r="1.66582" transform="matrix(-1 0 0 1 217.666 1301.67)" fill="white"/>
<circle r="1.66582" transform="matrix(-1 0 0 1 122.666 1185.67)" fill="white"/>
<circle r="1.66582" transform="matrix(-1 0 0 1 25.0871 1158.79)" fill="white"/>
<circle r="1.66582" transform="matrix(-1 0 0 1 126.006 1325.2)" fill="white"/>
<circle r="1.66582" transform="matrix(-1 0 0 1 122.666 990.666)" fill="white"/>
<circle r="1.66582" transform="matrix(-1 0 0 1 345.021 1401.43)" fill="white"/>
<circle r="1.66582" transform="matrix(-1 0 0 1 522.166 1504.49)" fill="white"/>
<circle r="1.66582" transform="matrix(-1 0 0 1 608.054 1388.54)" fill="white"/>
<circle r="1.66582" transform="matrix(-1 0 0 1 590.877 1155.57)" fill="white"/>
<circle r="1.66582" transform="matrix(-1 0 0 1 899.001 1445.45)" fill="white"/>
<circle r="1.66582" transform="matrix(-1 0 0 1 1008.51 1044.99)" fill="white"/>
<circle r="1.66582" transform="matrix(-1 0 0 1 1211.42 1107.26)" fill="white"/>
<circle r="1.66582" transform="matrix(-1 0 0 1 1291.94 1040.7)" fill="white"/>
<circle r="1.66582" transform="matrix(-1 0 0 1 781.978 1219.99)" fill="white"/>
<circle r="1.66582" transform="matrix(-1 0 0 1 1207.67 795.666)" fill="white"/>
<circle r="1.66582" transform="matrix(-1 0 0 1 399.775 1086.86)" fill="white"/>
<circle r="1.66582" transform="matrix(-1 0 0 1 572.625 1025.67)" fill="white"/>
<circle r="1.66582" transform="matrix(-1 0 0 1 1375.68 1414.31)" fill="white"/>
<circle r="1.66582" transform="matrix(-1 0 0 1 410.511 1253.27)" fill="white"/>
<circle r="1.66582" transform="matrix(-1 0 0 1 1567.86 1364.92)" fill="white"/>
</g>
<g filter="url(#filter4_df)">
<circle r="1.66582" transform="matrix(-1 0 0 1 1431.09 708.031)" fill="white"/>
<circle r="1.66582" transform="matrix(-1 0 0 1 1066.67 585.666)" fill="white"/>
<circle r="1.66582" transform="matrix(-1 0 0 1 1028.67 786.666)" fill="white"/>
<circle r="1.66582" transform="matrix(-1 0 0 1 953.666 684.666)" fill="white"/>
<circle r="1.66582" transform="matrix(-1 0 0 1 668.666 739.666)" fill="white"/>
<circle r="1.66582" transform="matrix(-1 0 0 1 1069.28 927.047)" fill="white"/>
<circle r="1.66582" transform="matrix(-1 0 0 1 184.633 573.831)" fill="white"/>
<circle r="1.66582" transform="matrix(-1 0 0 1 24.6658 660.793)" fill="white"/>
<circle r="1.66582" transform="matrix(-1 0 0 1 125.585 827.201)" fill="white"/>
<circle r="1.66582" transform="matrix(-1 0 0 1 49.3588 570.61)" fill="white"/>
<circle r="1.66582" transform="matrix(-1 0 0 1 344.6 903.427)" fill="white"/>
<circle r="1.66582" transform="matrix(-1 0 0 1 521.745 1006.49)" fill="white"/>
<circle r="1.66582" transform="matrix(-1 0 0 1 607.633 890.544)" fill="white"/>
<circle r="1.66582" transform="matrix(-1 0 0 1 590.455 657.572)" fill="white"/>
<circle r="1.66582" transform="matrix(-1 0 0 1 1077.67 1040.67)" fill="white"/>
<circle r="1.66582" transform="matrix(-1 0 0 1 863.716 546.99)" fill="white"/>
<circle r="1.66582" transform="matrix(-1 0 0 1 1211 609.26)" fill="white"/>
<circle r="1.66582" transform="matrix(-1 0 0 1 1291.52 542.696)" fill="white"/>
<circle r="1.66582" transform="matrix(-1 0 0 1 781.557 721.988)" fill="white"/>
<circle r="1.66582" transform="matrix(-1 0 0 1 399.354 588.861)" fill="white"/>
<circle r="1.66582" transform="matrix(-1 0 0 1 572.204 527.666)" fill="white"/>
<circle r="1.66582" transform="matrix(-1 0 0 1 1375.26 916.311)" fill="white"/>
<circle r="1.66582" transform="matrix(-1 0 0 1 410.09 755.27)" fill="white"/>
<circle r="1.66582" transform="matrix(-1 0 0 1 1567.44 866.925)" fill="white"/>
</g>
<g filter="url(#filter5_df)">
<circle cx="164.767" cy="1684.68" r="1.66582" fill="white"/>
<circle cx="643.666" cy="1642.67" r="1.66582" fill="white"/>
<circle cx="851.874" cy="1639.59" r="1.66582" fill="white"/>
<circle cx="526.572" cy="1903.69" r="1.66582" fill="white"/>
<circle opacity="0.5" cx="365.666" cy="2089.67" r="1.66582" fill="white"/>
<circle cx="881.666" cy="2176.67" r="1.66582" fill="white"/>
<circle cx="851.666" cy="2061.67" r="1.66582" fill="white"/>
<circle cx="626.666" cy="2125.67" r="1.66582" fill="white"/>
<circle opacity="0.5" cx="1372.67" cy="2033.67" r="1.66582" fill="white"/>
<circle opacity="0.5" cx="1564.67" cy="2092.67" r="1.66582" fill="white"/>
<circle cx="453.666" cy="1735.67" r="1.66582" fill="white"/>
<circle cx="1411.22" cy="1550.48" r="1.66582" fill="white"/>
<circle cx="1571.19" cy="1637.44" r="1.66582" fill="white"/>
<circle cx="1470.27" cy="1803.85" r="1.66582" fill="white"/>
<circle cx="1546.5" cy="1547.26" r="1.66582" fill="white"/>
<circle cx="1251.25" cy="1880.07" r="1.66582" fill="white"/>
<circle cx="1074.11" cy="1983.14" r="1.66582" fill="white"/>
<circle cx="988.221" cy="1867.19" r="1.66582" fill="white"/>
<circle cx="1005.4" cy="1634.22" r="1.66582" fill="white"/>
<circle cx="697.275" cy="1924.09" r="1.66582" fill="white"/>
<circle cx="732.138" cy="1523.63" r="1.66582" fill="white"/>
<circle cx="384.856" cy="1585.9" r="1.66582" fill="white"/>
<circle cx="241.666" cy="1520.67" r="1.66582" fill="white"/>
<circle cx="814.298" cy="1698.63" r="1.66582" fill="white"/>
<circle cx="923.805" cy="1594.49" r="1.66582" fill="white"/>
<circle cx="1196.5" cy="1565.51" r="1.66582" fill="white"/>
<circle cx="1023.65" cy="1504.31" r="1.66582" fill="white"/>
<circle cx="220.594" cy="1892.96" r="1.66582" fill="white"/>
<circle opacity="0.5" cx="206.666" cy="2066.67" r="1.66582" fill="white"/>
<circle opacity="0.5" cx="1248.67" cy="2063.67" r="1.66582" fill="white"/>
<circle cx="1562.67" cy="1977.67" r="1.66582" fill="white"/>
<circle opacity="0.5" cx="1467.67" cy="1933.67" r="1.66582" fill="white"/>
<circle cx="1185.76" cy="1731.92" r="1.66582" fill="white"/>
<circle cx="28.4193" cy="1843.57" r="1.66582" fill="white"/>
</g>
<path d="M311.939 2368.6C184.712 2345.5 1 2321.43 1 2321.43V2716H1603.44C1603.44 2716 1999.99 2469.8 1891.06 2303.11C1719.97 2041.29 1142.2 2329.65 829.43 2321.43C564.618 2314.46 511.602 2404.85 311.939 2368.6Z" fill="url(#paint1_radial)"/>
<path d="M186.566 2240.96H181.753L179.948 2350.47H188.371L186.566 2240.96Z" fill="#787F8B"/>
<path d="M213.545 2283.6L186.25 2237.78L182.067 2240.54L213.545 2283.6Z" fill="#787F8B"/>
<path d="M219.481 2199.27L182.281 2237.5L186.035 2240.82L219.481 2199.27Z" fill="#787F8B"/>
<path d="M131.828 2229.13L183.532 2242.23L184.534 2237.32L131.828 2229.13Z" fill="#787F8B"/>
<circle cx="184.16" cy="2239.16" r="4.12614" transform="rotate(29.5267 184.16 2239.16)" fill="#787F8B" stroke="#646B79" stroke-width="0.730407"/>
<circle cx="184.16" cy="2239.16" r="1.88047" transform="rotate(29.5267 184.16 2239.16)" fill="#E5E5E5"/>
<path d="M1501.36 2105.96H1506.17L1507.98 2215.47H1499.55L1501.36 2105.96Z" fill="#828994"/>
<path d="M1451.5 2114.52L1503.28 2101.7L1504.26 2106.62L1451.5 2114.52Z" fill="#828994"/>
<path d="M1507.29 2050.99L1506.27 2104.32L1501.27 2103.99L1507.29 2050.99Z" fill="#828994"/>
<path d="M1547.7 2134.31L1502.02 2106.76L1504.81 2102.59L1547.7 2134.31Z" fill="#828994"/>
<circle r="4.12614" transform="matrix(-0.962284 -0.272047 -0.272047 0.962284 1503.77 2104.16)" fill="#787F8B" stroke="#646B79" stroke-width="0.730407"/>
<circle r="1.88047" transform="matrix(-0.962284 -0.272047 -0.272047 0.962284 1503.77 2104.16)" fill="#E5E5E5"/>
<path d="M306.176 2254.49H301.362L299.557 2364H307.981L306.176 2254.49Z" fill="#787F8B"/>
<path d="M351.958 2275.41L304.837 2250.42L302.698 2254.96L351.958 2275.41Z" fill="#787F8B"/>
<path d="M313.246 2200.26L301.3 2252.24L306.235 2253.14L313.246 2200.26Z" fill="#787F8B"/>
<path d="M253.834 2271.29L304.827 2255.64L303.132 2250.92L253.834 2271.29Z" fill="#787F8B"/>
<circle cx="303.769" cy="2252.69" r="4.12614" transform="rotate(-1.75231 303.769 2252.69)" fill="#787F8B" stroke="#646B79" stroke-width="0.730407"/>
<circle cx="303.77" cy="2252.69" r="1.88047" transform="rotate(-1.75231 303.77 2252.69)" fill="#E5E5E5"/>
<path d="M1381.75 2119.49H1386.56L1388.37 2229H1379.94L1381.75 2119.49Z" fill="#828994"/>
<path d="M1363.96 2166.99L1381.84 2116.74L1386.48 2118.64L1363.96 2166.99Z" fill="#828994"/>
<path d="M1341.76 2085.42L1385.68 2115.69L1382.64 2119.68L1341.76 2085.42Z" fill="#828994"/>
<path d="M1433.55 2097.69L1385.37 2120.58L1383.43 2115.95L1433.55 2097.69Z" fill="#828994"/>
<circle r="4.12614" transform="matrix(-0.757916 0.652352 0.652352 0.757916 1384.16 2117.69)" fill="#787F8B" stroke="#646B79" stroke-width="0.730407"/>
<circle r="1.88047" transform="matrix(-0.757916 0.652352 0.652352 0.757916 1384.16 2117.69)" fill="#E5E5E5"/>
<path d="M71.5664 2224.96H66.7529L64.9479 2334.47H73.3714L71.5664 2224.96Z" fill="#787F8B"/>
<path d="M121.75 2214.62L68.7563 2220.68L69.5599 2225.63L121.75 2214.62Z" fill="#787F8B"/>
<path d="M47.2995 2174.57L66.8717 2224.19L71.4449 2222.13L47.2995 2174.57Z" fill="#787F8B"/>
<path d="M38.5161 2266.75L71.7006 2224.99L67.6323 2222.06L38.5161 2266.75Z" fill="#787F8B"/>
<circle cx="69.158" cy="2223.16" r="4.12614" transform="rotate(-36.2214 69.158 2223.16)" fill="#787F8B" stroke="#646B79" stroke-width="0.730407"/>
<circle cx="69.1586" cy="2223.16" r="1.88047" transform="rotate(-36.2214 69.1586 2223.16)" fill="#E5E5E5"/>
<path d="M153 2413.5C-75.8253 2413.42 0.999982 2449.44 0.999982 2449.44V2844H1604V2248C1351.83 2333.46 1227.5 2018.5 901 2018.5C453 2018.5 379.816 2413.58 153 2413.5Z" fill="url(#paint2_linear)"/>
<path d="M897.678 1950.39L897.678 2051.98L734 2051.98L734 1950.39L815.839 1868.55L897.678 1950.39Z" fill="#223440"/>
<rect opacity="0.5" width="87.0626" height="87.0626" transform="matrix(-1 -8.74228e-08 -8.74228e-08 1 859.047 1931.53)" fill="url(#paint3_radial)"/>
<rect width="28.2204" height="28.2204" transform="matrix(-1 -8.74228e-08 -8.74228e-08 1 829.946 1961.68)" fill="white"/>
<path d="M1009.01 1873C1009.01 1981.29 965.726 2018.15 965.726 2018.15C965.726 2018.15 922.436 1981.29 922.436 1873C922.436 1764.71 965.726 1626 965.726 1626C965.726 1626 1009.01 1764.71 1009.01 1873Z" fill="#223440"/>
<rect x="958.086" y="1804.25" width="15.2785" height="248.55" fill="#223440"/>
<path d="M1095.59 1935.78C1095.59 2001.8 1059.94 2024.26 1059.94 2024.26C1059.94 2024.26 1024.29 2001.8 1024.29 1935.78C1024.29 1869.76 1059.94 1785.2 1059.94 1785.2C1059.94 1785.2 1095.59 1869.76 1095.59 1935.78Z" fill="#223440"/>
<rect x="1053.65" y="1848.11" width="12.5823" height="204.688" fill="#223440"/>
<path d="M592.3 2016.58C592.3 2082.6 556.65 2105.06 556.65 2105.06C556.65 2105.06 521 2082.6 521 2016.58C521 1950.56 556.65 1866 556.65 1866C556.65 1866 592.3 1950.56 592.3 2016.58Z" fill="#223440"/>
<rect x="550.359" y="1928.91" width="12.5823" height="204.688" fill="#223440"/>
<rect opacity="0.2" x="635.3" y="1998.6" width="3.4" height="82.9662" fill="#223440"/>
<circle opacity="0.5" r="17" transform="matrix(1 0 0 -1 637 1985)" fill="url(#paint4_radial)"/>
<circle r="6.8" transform="matrix(1 0 0 -1 637 1985)" fill="white"/>
<rect opacity="0.2" x="1135.3" y="1998.6" width="3.4" height="82.9662" fill="#223440"/>
<circle opacity="0.5" r="17" transform="matrix(1 0 0 -1 1137 1985)" fill="url(#paint5_radial)"/>
<circle r="6.8" transform="matrix(1 0 0 -1 1137 1985)" fill="white"/>
<path fill-rule="evenodd" clip-rule="evenodd" d="M738.274 413.158C794.657 428.266 852.611 394.806 867.718 338.424C877.741 301.017 866.387 262.918 841.144 237.099C871.552 262.693 886.178 304.45 875.211 345.379C860.103 401.761 802.149 435.221 745.767 420.113C726.792 415.029 710.412 405.091 697.607 391.994C709.089 401.658 722.821 409.017 738.274 413.158Z" fill="white"/>
<g filter="url(#filter6_df)">
<path fill-rule="evenodd" clip-rule="evenodd" d="M738.276 413.158C794.658 428.265 852.612 394.805 867.72 338.423C877.743 301.017 866.389 262.919 841.146 237.1C871.554 262.694 886.179 304.45 875.212 345.378C860.105 401.761 802.151 435.22 745.768 420.113C726.792 415.028 710.413 405.09 697.608 391.992C709.089 401.657 722.822 409.017 738.276 413.158Z" fill="white"/>
</g>
</g>
<defs>
<filter id="filter0_df" x="-580" y="-716" width="2443.2" height="3628.14" filterUnits="userSpaceOnUse" color-interpolation-filters="sRGB">
<feFlood flood-opacity="0" result="BackgroundImageFix"/>
<feColorMatrix in="SourceAlpha" type="matrix" values="0 0 0 0 0 0 0 0 0 0 0 0 0 0 0 0 0 0 127 0"/>
<feOffset/>
<feGaussianBlur stdDeviation="17"/>
<feColorMatrix type="matrix" values="0 0 0 0 0.776471 0 0 0 0 1 0 0 0 0 1 0 0 0 1 0"/>
<feBlend mode="normal" in2="BackgroundImageFix" result="effect1_dropShadow"/>
<feBlend mode="normal" in="SourceGraphic" in2="effect1_dropShadow" result="shape"/>
<feGaussianBlur stdDeviation="125" result="effect2_foregroundBlur"/>
</filter>
<filter id="filter1_f" x="-271" y="1813" width="2205" height="1153" filterUnits="userSpaceOnUse" color-interpolation-filters="sRGB">
<feFlood flood-opacity="0" result="BackgroundImageFix"/>
<feBlend mode="normal" in="SourceGraphic" in2="BackgroundImageFix" result="shape"/>
<feGaussianBlur stdDeviation="125" result="effect1_foregroundBlur"/>
</filter>
<filter id="filter2_df" x="2.75348" y="22.9032" width="1594.1" height="542.428" filterUnits="userSpaceOnUse" color-interpolation-filters="sRGB">
<feFlood flood-opacity="0" result="BackgroundImageFix"/>
<feColorMatrix in="SourceAlpha" type="matrix" values="0 0 0 0 0 0 0 0 0 0 0 0 0 0 0 0 0 0 127 0"/>
<feOffset/>
<feGaussianBlur stdDeviation="12"/>
<feColorMatrix type="matrix" values="0 0 0 0 0.776471 0 0 0 0 1 0 0 0 0 1 0 0 0 1 0"/>
<feBlend mode="normal" in2="BackgroundImageFix" result="effect1_dropShadow"/>
<feBlend mode="normal" in="SourceGraphic" in2="effect1_dropShadow" result="shape"/>
<feGaussianBlur stdDeviation="1.5" result="effect2_foregroundBlur"/>
</filter>
<filter id="filter3_df" x="-0.578735" y="770" width="1594.1" height="760.159" filterUnits="userSpaceOnUse" color-interpolation-filters="sRGB">
<feFlood flood-opacity="0" result="BackgroundImageFix"/>
<feColorMatrix in="SourceAlpha" type="matrix" values="0 0 0 0 0 0 0 0 0 0 0 0 0 0 0 0 0 0 127 0"/>
<feOffset/>
<feGaussianBlur stdDeviation="12"/>
<feColorMatrix type="matrix" values="0 0 0 0 0.776471 0 0 0 0 1 0 0 0 0 1 0 0 0 1 0"/>
<feBlend mode="normal" in2="BackgroundImageFix" result="effect1_dropShadow"/>
<feBlend mode="normal" in="SourceGraphic" in2="effect1_dropShadow" result="shape"/>
<feGaussianBlur stdDeviation="1.5" result="effect2_foregroundBlur"/>
</filter>
<filter id="filter4_df" x="-1" y="502" width="1594.1" height="564.332" filterUnits="userSpaceOnUse" color-interpolation-filters="sRGB">
<feFlood flood-opacity="0" result="BackgroundImageFix"/>
<feColorMatrix in="SourceAlpha" type="matrix" values="0 0 0 0 0 0 0 0 0 0 0 0 0 0 0 0 0 0 127 0"/>
<feOffset/>
<feGaussianBlur stdDeviation="12"/>
<feColorMatrix type="matrix" values="0 0 0 0 0.776471 0 0 0 0 1 0 0 0 0 1 0 0 0 1 0"/>
<feBlend mode="normal" in2="BackgroundImageFix" result="effect1_dropShadow"/>
<feBlend mode="normal" in="SourceGraphic" in2="effect1_dropShadow" result="shape"/>
<feGaussianBlur stdDeviation="1.5" result="effect2_foregroundBlur"/>
</filter>
<filter id="filter5_df" x="2.75348" y="1478.65" width="1594.1" height="723.687" filterUnits="userSpaceOnUse" color-interpolation-filters="sRGB">
<feFlood flood-opacity="0" result="BackgroundImageFix"/>
<feColorMatrix in="SourceAlpha" type="matrix" values="0 0 0 0 0 0 0 0 0 0 0 0 0 0 0 0 0 0 127 0"/>
<feOffset/>
<feGaussianBlur stdDeviation="12"/>
<feColorMatrix type="matrix" values="0 0 0 0 0.776471 0 0 0 0 1 0 0 0 0 1 0 0 0 1 0"/>
<feBlend mode="normal" in2="BackgroundImageFix" result="effect1_dropShadow"/>
<feBlend mode="normal" in="SourceGraphic" in2="effect1_dropShadow" result="shape"/>
<feGaussianBlur stdDeviation="1.5" result="effect2_foregroundBlur"/>
</filter>
<filter id="filter6_df" x="673.608" y="213.1" width="229.232" height="234.641" filterUnits="userSpaceOnUse" color-interpolation-filters="sRGB">
<feFlood flood-opacity="0" result="BackgroundImageFix"/>
<feColorMatrix in="SourceAlpha" type="matrix" values="0 0 0 0 0 0 0 0 0 0 0 0 0 0 0 0 0 0 127 0"/>
<feOffset/>
<feGaussianBlur stdDeviation="12"/>
<feColorMatrix type="matrix" values="0 0 0 0 0.776471 0 0 0 0 1 0 0 0 0 1 0 0 0 1 0"/>
<feBlend mode="normal" in2="BackgroundImageFix" result="effect1_dropShadow"/>
<feBlend mode="normal" in="SourceGraphic" in2="effect1_dropShadow" result="shape"/>
<feGaussianBlur stdDeviation="1.5" result="effect2_foregroundBlur"/>
</filter>
<linearGradient id="paint0_linear" x1="800" y1="0" x2="800" y2="2102.45" gradientUnits="userSpaceOnUse">
<stop stop-color="#3E4859"/>
<stop offset="1" stop-color="#78808D"/>
</linearGradient>
<radialGradient id="paint1_radial" cx="0" cy="0" r="1" gradientUnits="userSpaceOnUse" gradientTransform="translate(782.234 2195.45) rotate(60.3527) scale(713.901 2271.4)">
<stop stop-color="#666D7B"/>
<stop offset="1" stop-color="#666D7B" stop-opacity="0"/>
</radialGradient>
<linearGradient id="paint2_linear" x1="796" y1="2224.5" x2="796" y2="3163.5" gradientUnits="userSpaceOnUse">
<stop stop-color="#223440"/>
<stop offset="1" stop-color="#496076"/>
</linearGradient>
<radialGradient id="paint3_radial" cx="0" cy="0" r="1" gradientUnits="userSpaceOnUse" gradientTransform="translate(43.5313 46.5365) rotate(82.6597) scale(42.0164 42.3327)">
<stop stop-color="white"/>
<stop offset="0.430737" stop-color="#C4E6FF" stop-opacity="0.5"/>
<stop offset="1" stop-color="#6F7E89" stop-opacity="0"/>
</radialGradient>
<radialGradient id="paint4_radial" cx="0" cy="0" r="1" gradientUnits="userSpaceOnUse" gradientTransform="translate(17 18.1736) rotate(82.6597) scale(16.4084 16.5319)">
<stop stop-color="white"/>
<stop offset="0.430737" stop-color="#C4E6FF" stop-opacity="0.5"/>
<stop offset="1" stop-color="#6F7E89" stop-opacity="0"/>
</radialGradient>
<radialGradient id="paint5_radial" cx="0" cy="0" r="1" gradientUnits="userSpaceOnUse" gradientTransform="translate(17 18.1736) rotate(82.6597) scale(16.4084 16.5319)">
<stop stop-color="white"/>
<stop offset="0.430737" stop-color="#C4E6FF" stop-opacity="0.5"/>
<stop offset="1" stop-color="#6F7E89" stop-opacity="0"/>
</radialGradient>
<clipPath id="clip0">
<rect width="1600" height="2844" fill="white"/>
</clipPath>
</defs>
</svg>
