<svg viewBox="0 0 13 13" fill="none" xmlns="http://www.w3.org/2000/svg">
<path fill-rule="evenodd" clip-rule="evenodd" d="M11.264 5.32217C10.8887 5.32217 10.5859 5.62499 10.5859 6.00029C10.5859 8.5289 8.52853 10.5862 5.99993 10.5862C3.47132 10.5862 1.41399 8.5289 1.41399 6.00029C1.41399 3.47169 3.47132 1.41436 5.99993 1.41436C7.23042 1.41436 8.37988 1.89696 9.22895 2.7417H8.02961C7.65431 2.7417 7.35149 3.04452 7.35149 3.41982C7.35149 3.79512 7.65431 4.09795 8.02961 4.09795H10.7156C11.0909 4.09795 11.3937 3.79512 11.3937 3.41982V0.73623C11.3937 0.36093 11.0909 0.0581055 10.7156 0.0581055C10.3403 0.0581055 10.0374 0.360929 10.0374 0.73623V1.63478C8.95189 0.630322 7.52371 0.0581055 5.99993 0.0581055C2.72306 0.0581055 0.0577393 2.72343 0.0577393 6.00029C0.0577393 9.27716 2.72306 11.9425 5.99993 11.9425C9.27679 11.9425 11.9421 9.27716 11.9421 6.00029C11.9421 5.62499 11.6393 5.32217 11.264 5.32217Z" fill="white"/>
</svg>
