<svg viewBox="0 0 15 12" fill="none" xmlns="http://www.w3.org/2000/svg">
<path d="M4.63583 12C10.2047 12 13.252 7.38189 13.252 3.38386C13.252 3.25394 13.252 3.12402 13.2461 2.99409C13.8366 2.5689 14.3504 2.0315 14.7579 1.42323C14.2146 1.66535 13.6299 1.8248 13.0157 1.90157C13.6417 1.52953 14.1201 0.933071 14.3504 0.224409C13.7657 0.572834 13.1161 0.820866 12.4252 0.956693C11.8701 0.366142 11.0846 0 10.2165 0C8.54528 0 7.18701 1.35827 7.18701 3.02953C7.18701 3.26575 7.21654 3.49606 7.26378 3.72047C4.74803 3.59646 2.51575 2.38583 1.02165 0.555118C0.761811 1.00394 0.614173 1.52362 0.614173 2.07874C0.614173 3.12992 1.15158 4.05709 1.96063 4.60039C1.46457 4.58268 0.998032 4.44685 0.590551 4.22244C0.590551 4.23425 0.590551 4.24606 0.590551 4.26378C0.590551 5.72835 1.63583 6.95669 3.01772 7.23425C2.76378 7.30512 2.49803 7.34055 2.22047 7.34055C2.02559 7.34055 1.83661 7.32283 1.65354 7.2874C2.0374 8.49213 3.15945 9.36614 4.48228 9.38976C3.44291 10.2047 2.1378 10.689 0.720473 10.689C0.478347 10.689 0.23622 10.6772 0 10.6476C1.33465 11.498 2.92913 12 4.63583 12Z" fill="#1A2537"/>
</svg>
